<svg width="77" height="77" viewBox="0 0 77 77" fill="none" xmlns="http://www.w3.org/2000/svg">
<g clip-path="url(#clip0_1006_313)">
<path d="M38.25 43.8316C45.7946 43.8316 51.9107 37.7155 51.9107 30.1709C51.9107 22.6263 45.7946 16.5102 38.25 16.5102C30.7054 16.5102 24.5893 22.6263 24.5893 30.1709C24.5893 37.7155 30.7054 43.8316 38.25 43.8316Z" stroke="black" stroke-width="5.46429" stroke-linecap="round" stroke-linejoin="round"/>
<path d="M14.9174 65.1421C17.3558 61.1395 20.7828 57.8315 24.869 55.5365C28.9552 53.241 33.5631 52.0353 38.2499 52.0353C42.9367 52.0353 47.5446 53.241 51.6308 55.5365C55.7172 57.8315 59.1438 61.1395 61.5825 65.1421" stroke="black" stroke-width="5.46429" stroke-linecap="round" stroke-linejoin="round"/>
<path d="M38.25 73.8851C57.8662 73.8851 73.7678 57.9835 73.7678 38.3673C73.7678 18.7513 57.8662 2.84943 38.25 2.84943C18.634 2.84943 2.73212 18.7513 2.73212 38.3673C2.73212 57.9835 18.634 73.8851 38.25 73.8851Z" stroke="black" stroke-width="5.46429" stroke-linecap="round" stroke-linejoin="round"/>
</g>
<defs>
<clipPath id="clip0_1006_313">
<rect width="76.5" height="76.5" fill="white" transform="translate(0 0.11731)"/>
</clipPath>
</defs>
</svg>
