<svg width="77" height="77" viewBox="0 0 77 77" fill="none" xmlns="http://www.w3.org/2000/svg">
<g id="streamlinehq-interface-edit-scale-3d-&#10;          line-24-ico_iV46j3CehVNaFxZS">
<path id="Vector" d="M38.7147 44.0413V23.7531" stroke="black" stroke-width="4.78571"/>
<path id="Vector_2" d="M38.7147 44.0409L56.216 56.2917" stroke="black" stroke-width="4.78571"/>
<path id="Vector_3" d="M38.7137 44.0409L21.2137 56.2908" stroke="black" stroke-width="4.78571"/>
<path id="Vector_4" d="M38.7147 24.1004C43.5603 24.1004 47.4885 20.1723 47.4885 15.3266C47.4885 10.481 43.5603 6.55283 38.7147 6.55283C33.869 6.55283 29.9409 10.481 29.9409 15.3266C29.9409 20.1723 33.869 24.1004 38.7147 24.1004Z" stroke="black" stroke-width="4.78571"/>
<path id="Vector_5" d="M14.7861 70.3623C19.6317 70.3623 23.5599 66.4342 23.5599 61.5885C23.5599 56.7429 19.6317 52.8147 14.7861 52.8147C9.94044 52.8147 6.01227 56.7429 6.01227 61.5885C6.01227 66.4342 9.94044 70.3623 14.7861 70.3623Z" stroke="black" stroke-width="4.78571"/>
<path id="Vector_6" d="M62.6432 70.3623C67.4888 70.3623 71.417 66.4342 71.417 61.5885C71.417 56.7429 67.4888 52.8147 62.6432 52.8147C57.7976 52.8147 53.8694 56.7429 53.8694 61.5885C53.8694 66.4342 57.7976 70.3623 62.6432 70.3623Z" stroke="black" stroke-width="4.78571"/>
</g>
</svg>
