<svg width="77" height="77" viewBox="0 0 77 77" fill="none" xmlns="http://www.w3.org/2000/svg">
<path d="M60.6252 27.3107C60.6252 39.6463 50.6252 49.6463 38.2896 49.6463C25.954 49.6463 15.9541 39.6463 15.9541 27.3107C15.9541 14.9752 25.954 4.97522 38.2896 4.97522C50.6252 4.97522 60.6252 14.9752 60.6252 27.3107Z" stroke="white" stroke-width="4.78618" stroke-linecap="round" stroke-linejoin="round"/>
<path d="M29.2792 47.7533C21.1522 50.1775 14.7985 55.7885 12.3093 62.8151C10.9589 66.6268 13.7565 70.2121 17.7601 70.7812C22.0641 71.3929 28.697 71.9811 38.2904 71.9811C47.8837 71.9811 54.5167 71.3929 58.8206 70.7812C62.8243 70.2121 65.6219 66.6268 64.2716 62.8151C61.7823 55.7885 55.4286 50.1775 47.3015 47.7533" stroke="white" stroke-width="4.78618" stroke-linecap="round" stroke-linejoin="round"/>
<path d="M60.6252 27.3107C48.2896 27.3107 38.2896 17.3108 38.2896 4.97522C38.2896 17.3108 28.2897 27.3107 15.9541 27.3107" stroke="white" stroke-width="4.78618" stroke-linecap="round" stroke-linejoin="round"/>
<path d="M44.6712 37.6808C41.8792 41.9352 34.7 41.9352 31.908 37.6808" stroke="white" stroke-width="4.78618" stroke-linecap="round" stroke-linejoin="round"/>
<path d="M30.3127 28.9061V29.7038" stroke="white" stroke-width="4.78618" stroke-linecap="round" stroke-linejoin="round"/>
<path d="M46.2682 28.9061V29.7038" stroke="white" stroke-width="4.78618" stroke-linecap="round" stroke-linejoin="round"/>
</svg>
