<svg width="77" height="78" viewBox="0 0 77 78" fill="none" xmlns="http://www.w3.org/2000/svg">
<g id="streamlinehq-money-cash-bill-1-&#10;          line-48-ico_yFOicjyMRxa88emM">
<path id="Vector" d="M55.839 68.3185C54.9192 68.7375 53.8982 68.9908 52.8144 69.0459C49.3974 69.2191 44.6101 69.3697 38.2896 69.3697C31.9692 69.3697 27.1819 69.2191 23.7648 69.0457C22.6811 68.9908 21.66 68.7375 20.7403 68.3185" stroke="black" stroke-width="4.78618" stroke-linecap="round" stroke-linejoin="round"/>
<path id="Vector_2" d="M63.0183 59.6062C61.848 60.365 60.4543 60.8283 58.9438 60.9109C54.4954 61.1541 47.7197 61.3937 38.2897 61.3937C28.8596 61.3937 22.084 61.1541 17.6355 60.9109C16.125 60.8283 14.7312 60.365 13.561 59.6062" stroke="black" stroke-width="4.78618" stroke-linecap="round" stroke-linejoin="round"/>
<path id="Vector_3" d="M5.42106 45.7738C5.8134 49.7556 9.02435 52.6158 13.0195 52.8346C18.1594 53.116 26.4234 53.4163 38.2896 53.4163C50.1558 53.4163 58.4198 53.116 63.5597 52.8346C67.5549 52.6158 70.7658 49.7558 71.1581 45.7738C71.4958 42.3463 71.7929 37.5055 71.7929 31.0807C71.7929 24.6559 71.4958 19.8152 71.1581 16.3877C70.7658 12.4058 67.5549 9.54559 63.5597 9.32684C58.4198 9.04541 50.1558 8.74521 38.2896 8.74521C26.4234 8.74521 18.1594 9.04541 13.0195 9.32684C9.02435 9.54559 5.8134 12.4058 5.42106 16.3877C5.08333 19.8152 4.78632 24.6559 4.78632 31.0807C4.78632 37.5055 5.08333 42.3463 5.42106 45.7738Z" stroke="black" stroke-width="4.78618" stroke-linecap="round" stroke-linejoin="round"/>
<path id="Vector_4" d="M44.6712 23.9184C44.6712 23.9184 42.1185 21.9648 38.2896 21.9648C35.0988 21.9648 31.908 23.9184 31.908 26.5232C31.908 33.035 44.6712 29.1278 44.6712 35.6398C44.6712 38.2444 41.4804 40.198 38.2896 40.198C34.4607 40.198 31.908 38.2444 31.908 38.2444" stroke="black" stroke-width="4.78618" stroke-linecap="round" stroke-linejoin="round"/>
<path id="Vector_5" d="M38.2896 21.9642V18.3176" stroke="black" stroke-width="4.78618" stroke-linecap="round" stroke-linejoin="round"/>
<path id="Vector_6" d="M38.2896 43.8432V40.1966" stroke="black" stroke-width="4.78618" stroke-linecap="round" stroke-linejoin="round"/>
<path id="Vector_7" d="M59.0298 31.0807H57.4344" stroke="black" stroke-width="4.78618" stroke-linecap="round" stroke-linejoin="round"/>
<path id="Vector_8" d="M19.1449 31.0807H17.5495" stroke="black" stroke-width="4.78618" stroke-linecap="round" stroke-linejoin="round"/>
</g>
</svg>
