<svg width="77" height="77" viewBox="0 0 77 77" fill="none" xmlns="http://www.w3.org/2000/svg">
<g id="streamlinehq-natrue-ecology-recycle-1-&#10;          line-48-ico_G66hUIGEW3uHqu1L">
<path id="Vector" d="M15.5767 25.1836C18.515 20.8891 24.4122 12.5984 27.6826 9.03247C28.5846 8.04901 29.8041 7.47543 31.1207 7.25771C34.0099 6.7799 39.6002 6.1188 44.8024 7.01211C46.5767 7.31678 48.1145 8.35175 49.293 9.71273C50.3996 10.9908 51.7078 12.5143 52.2708 13.2181L55.1776 11.7647C56.6301 11.0385 58.277 12.255 57.9769 13.851C56.8724 19.725 54.5715 30.4148 52.2708 31.5652C49.932 32.7346 39.4494 29.6179 34.0188 27.8704C32.5541 27.399 32.199 25.5223 33.3671 24.521L36.3169 21.9928L33.1261 15.6112" stroke="black" stroke-width="4.78618" stroke-linecap="round" stroke-linejoin="round"/>
<path id="Vector_2" d="M62.8054 26.9072C65.0553 31.5991 69.2867 40.8515 70.7397 45.4668C71.1404 46.7396 71.0273 48.0826 70.5576 49.3316C69.5268 52.0725 67.3041 57.2445 63.9296 61.303C62.7785 62.6873 61.1132 63.5016 59.3454 63.8417C57.6852 64.161 55.7117 64.5322 54.8207 64.668L54.626 67.9119C54.5287 69.533 52.6517 70.3509 51.4196 69.293C46.8848 65.3996 38.7775 58.0621 38.9318 55.4945C39.0885 52.8841 47.0287 45.3643 51.2575 41.5351C52.398 40.5024 54.2008 41.1332 54.4839 42.6455L55.1986 46.4641L62.3206 46.8915" stroke="black" stroke-width="4.78618" stroke-linecap="round" stroke-linejoin="round"/>
<path id="Vector_3" d="M38.0768 66.9302C32.8884 66.5328 22.7599 65.5711 18.0365 64.5218C16.7339 64.2324 15.6273 63.4629 14.7805 62.4317C12.9221 60.1685 9.5544 55.6576 7.72694 50.7058C7.10365 49.0168 7.23103 47.1676 7.82046 45.4666C8.374 43.8691 9.03928 41.9744 9.36726 41.1349L6.65523 39.3444C5.30004 38.4495 5.53014 36.4149 7.06234 35.877C12.7015 33.8964 23.1096 30.544 25.2563 31.9614C27.4385 33.4022 29.9806 44.0387 31.1824 49.6156C31.5066 51.1195 30.059 52.3655 28.6078 51.8545L24.9433 50.5642L21.0121 56.5182" stroke="black" stroke-width="4.78618" stroke-linecap="round" stroke-linejoin="round"/>
</g>
</svg>
